<?xml version="1.0" encoding="UTF-8" standalone="no"?>
<!-- Created with Inkscape (http://www.inkscape.org/) -->

<svg
   xmlns:dc="http://purl.org/dc/elements/1.1/"
   xmlns:cc="http://creativecommons.org/ns#"
   xmlns:rdf="http://www.w3.org/1999/02/22-rdf-syntax-ns#"
   xmlns:svg="http://www.w3.org/2000/svg"
   xmlns="http://www.w3.org/2000/svg"
   xmlns:sodipodi="http://sodipodi.sourceforge.net/DTD/sodipodi-0.dtd"
   xmlns:inkscape="http://www.inkscape.org/namespaces/inkscape"
   width="70.424377"
   height="40.080009"
   viewBox="0 0 18.633116 10.604503"
   version="1.1"
   id="svg4510"
   inkscape:version="0.92.2 5c3e80d, 2017-08-06"
   sodipodi:docname="fun.svg">
  <defs
     id="defs4504" />
  <sodipodi:namedview
     id="base"
     pagecolor="#ffffff"
     bordercolor="#666666"
     borderopacity="1.0"
     inkscape:pageopacity="0.0"
     inkscape:pageshadow="2"
     inkscape:zoom="0.35"
     inkscape:cx="8.3200038"
     inkscape:cy="-707.14285"
     inkscape:document-units="px"
     inkscape:current-layer="layer1"
     showgrid="false"
     inkscape:window-width="1440"
     inkscape:window-height="855"
     inkscape:window-x="0"
     inkscape:window-y="1"
     inkscape:window-maximized="1"
     fit-margin-top="0"
     fit-margin-left="0"
     fit-margin-right="0"
     fit-margin-bottom="0"
     units="px" />
  <metadata
     id="metadata4507">
    <rdf:RDF>
      <cc:Work
         rdf:about="">
        <dc:format>image/svg+xml</dc:format>
        <dc:type
           rdf:resource="http://purl.org/dc/dcmitype/StillImage" />
        <dc:title></dc:title>
      </cc:Work>
    </rdf:RDF>
  </metadata>
  <g
     inkscape:label="Layer 1"
     inkscape:groupmode="layer"
     id="layer1"
     transform="translate(-24.256999,-11.606809)">
    <g
       aria-label="fun!"
       style="font-style:normal;font-variant:normal;font-weight:normal;font-stretch:normal;font-size:10.58333302px;line-height:1.25;font-family:Lobster;-inkscape-font-specification:'Lobster, Normal';font-variant-ligatures:normal;font-variant-caps:normal;font-variant-numeric:normal;font-feature-settings:normal;text-align:start;letter-spacing:0px;word-spacing:0px;writing-mode:lr-tb;text-anchor:start;fill:#ff0080;fill-opacity:1;stroke:none;stroke-width:0.26458332"
       id="text4514">
      <path
         d="m 25.505832,22.211309 q -0.497417,0 -0.867833,-0.328084 -0.381,-0.3175 -0.381,-0.814916 0,-0.455084 0.232833,-0.751417 0.232833,-0.296333 0.60325,-0.47625 0.370417,-0.169333 0.98425,-0.359833 l 1.280583,-6.043083 q 0.211667,-1.016 0.740834,-1.407584 0.53975,-0.391583 1.185333,-0.391583 0.497417,0 0.867833,0.328083 0.381,0.3175 0.381,0.814917 0,0.243417 -0.03175,0.433917 h -0.497416 q 0.02117,-0.232834 0.02117,-0.28575 0,-0.169334 -0.116416,-0.264584 -0.116417,-0.09525 -0.28575,-0.09525 -0.22225,0 -0.433917,0.201084 -0.211667,0.1905 -0.306917,0.66675 l -0.179916,0.836083 h 2.82575 l -0.762,3.598333 q -0.03175,0.15875 -0.03175,0.296334 0,0.433916 0.3175,0.433916 0.296333,0 0.508,-0.243416 0.211666,-0.254 0.338666,-0.687917 l 0.719667,-3.39725 h 1.524 l -0.762,3.598333 q -0.04233,0.15875 -0.04233,0.338667 0,0.211666 0.09525,0.306916 0.105833,0.08467 0.338666,0.08467 0.296333,0 0.508,-0.254 0.22225,-0.254 0.34925,-0.677333 h 0.4445 q -0.391583,1.143 -0.973667,1.55575 -0.571499,0.402166 -1.153583,0.402166 -0.455083,0 -0.73025,-0.254 -0.264583,-0.254 -0.3175,-0.751416 -0.359833,0.582083 -0.762,0.79375 -0.391583,0.211666 -0.804333,0.211666 -0.508,0 -0.8255,-0.3175 -0.306917,-0.3175 -0.306917,-0.952499 0,-0.264584 0.08467,-0.687917 l 0.624417,-2.973917 h -1.291167 l -1.217083,5.715 q -0.211667,1.026583 -0.73025,1.407583 -0.518584,0.391584 -1.164167,0.391584 z m -0.243417,-0.941917 q 0.423334,0 0.60325,-0.8255 l 0.137584,-0.613833 q -0.560917,0.1905 -0.85725,0.433916 -0.306917,0.254 -0.306917,0.656167 0,0.127 0.127,0.232833 0.127,0.116417 0.296333,0.116417 z"
         style="font-style:normal;font-variant:normal;font-weight:normal;font-stretch:normal;font-size:10.58333302px;font-family:Lobster;-inkscape-font-specification:'Lobster, Normal';font-variant-ligatures:normal;font-variant-caps:normal;font-variant-numeric:normal;font-feature-settings:normal;text-align:start;writing-mode:lr-tb;text-anchor:start;fill:#ff0080;fill-opacity:1;stroke-width:0.26458332"
         id="path4516"
         inkscape:connector-curvature="0" />
      <path
         d="m 38.263875,19.628975 q -0.560917,0 -0.814917,-0.338666 -0.254,-0.338667 -0.254,-0.85725 0,-0.22225 0.05292,-0.497417 0.05292,-0.28575 0.105833,-0.550333 0.0635,-0.264583 0.08467,-0.338667 0.08467,-0.370416 0.15875,-0.73025 0.07408,-0.359833 0.07408,-0.582083 0,-0.53975 -0.381,-0.53975 -0.275167,0 -0.486833,0.275167 -0.211667,0.264583 -0.338667,0.6985 l -0.719667,3.397249 h -1.524 l 1.121834,-5.291666 h 1.524 l -0.116417,0.550333 q 0.529167,-0.592666 1.23825,-0.592666 0.53975,0 0.85725,0.296333 0.3175,0.296333 0.3175,0.899583 0,0.306917 -0.07408,0.687917 -0.07408,0.370417 -0.211667,0.910167 -0.08467,0.328083 -0.15875,0.645583 -0.0635,0.306917 -0.0635,0.486833 0,0.211667 0.09525,0.328083 0.09525,0.116417 0.328083,0.116417 0.254,0 0.34925,-0.0635 -0.0635,0.53975 -0.391583,0.814917 -0.3175,0.275166 -0.772583,0.275166 z"
         style="font-style:normal;font-variant:normal;font-weight:normal;font-stretch:normal;font-size:10.58333302px;font-family:Lobster;-inkscape-font-specification:'Lobster, Normal';font-variant-ligatures:normal;font-variant-caps:normal;font-variant-numeric:normal;font-feature-settings:normal;text-align:start;writing-mode:lr-tb;text-anchor:start;fill:#ff0080;fill-opacity:1;stroke-width:0.26458332"
         id="path4518"
         inkscape:connector-curvature="0" />
      <path
         d="m 41.260281,11.829059 1.629834,-0.22225 -1.534584,5.513917 h -0.899583 z m -0.656166,7.799916 q -0.34925,0 -0.60325,-0.243416 -0.243417,-0.254 -0.243417,-0.60325 0,-0.34925 0.243417,-0.592667 0.254,-0.243416 0.60325,-0.243416 0.34925,0 0.592666,0.243416 0.243417,0.243417 0.243417,0.592667 0,0.34925 -0.243417,0.60325 -0.243416,0.243416 -0.592666,0.243416 z"
         style="font-style:normal;font-variant:normal;font-weight:normal;font-stretch:normal;font-size:10.58333302px;font-family:Lobster;-inkscape-font-specification:'Lobster, Normal';font-variant-ligatures:normal;font-variant-caps:normal;font-variant-numeric:normal;font-feature-settings:normal;text-align:start;writing-mode:lr-tb;text-anchor:start;fill:#ff0080;fill-opacity:1;stroke-width:0.26458332"
         id="path4520"
         inkscape:connector-curvature="0" />
    </g>
  </g>
</svg>
