<svg viewBox="0 0 85 55" xmlns="http://www.w3.org/2000/svg" fill-rule="evenodd" clip-rule="evenodd" stroke-linejoin="round" stroke-miterlimit="1.414">
  <path fill="none" d="M-.001 0h85v55h-85z"/>
  <path d="M13.283 18.301c0-1.023-.324-1.876-.977-2.56-.647-.68-1.458-1.02-2.432-1.02-.955 0-1.774.346-2.452 1.044a3.443 3.443 0 0 0-1.018 2.492c0 1.008.34 1.849 1.024 2.52.68.67 1.541 1.007 2.578 1.007.915 0 1.688-.337 2.324-1.012.634-.674.953-1.498.953-2.47m.12-5.083V8.385h2.744v15.848h-2.744v-.98a5.996 5.996 0 0 1-1.742.974c-.61.215-1.27.321-1.982.321-.755 0-1.466-.12-2.132-.36a5.584 5.584 0 0 1-1.795-1.044A6.339 6.339 0 0 1 4.08 20.93a6.478 6.478 0 0 1-.582-2.716c0-.886.179-1.734.539-2.547a6.252 6.252 0 0 1 1.517-2.112 5.593 5.593 0 0 1 1.874-1.176 6.273 6.273 0 0 1 2.25-.402c.77 0 1.452.1 2.047.3.596.2 1.153.513 1.678.942M28.8 12.695h-2.45v-2.028l2.45-.006v2.034zm0 10.745h-2.45v-9.648h2.45v9.648zM27.576 9.156a8.917 8.917 0 1 0 0 17.832 8.916 8.916 0 0 0 8.916-8.916 8.916 8.916 0 0 0-8.916-8.916M48.635 22.934c-.68.656-1.536.985-2.566.985-1.038 0-1.876-.346-2.512-1.038-.638-.693-.986-1.63-1.044-2.811l2.291-.01v.147c0 .475.122.863.365 1.16.24.296.554.446.94.446.365 0 .663-.11.892-.334.233-.22.35-.506.35-.852 0-.32-.086-.583-.254-.788-.171-.206-.472-.414-.91-.622-.25-.113-.615-.266-1.098-.462-.484-.195-.792-.349-.93-.46a3.163 3.163 0 0 1-.882-1.09c-.19-.404-.283-.86-.283-1.377 0-.907.318-1.676.953-2.302.637-.626 1.41-.941 2.317-.941.96 0 1.72.278 2.279.832.556.555.863 1.333.913 2.332h-2.251v-.059c0-.345-.089-.618-.27-.813-.179-.195-.427-.294-.748-.294a.937.937 0 0 0-.702.288 1.001 1.001 0 0 0-.277.72c0 .472.48.909 1.45 1.314.254.103.448.187.586.243.927.42 1.562.869 1.899 1.349.342.48.51 1.126.51 1.944 0 1.006-.339 1.836-1.018 2.493M46.083 9.156a8.916 8.916 0 0 0-8.915 8.916 8.916 8.916 0 1 0 17.83 0 8.915 8.915 0 0 0-8.915-8.916" fill="#ff272b" fill-rule="nonzero"/>
  <path d="M31.304 34.946c-.973.079-1.653.333-2.038.764-.363.408-.553 1.13-.573 2.16h-2.51v-5.108h2.35v1.245c.378-.485.793-.837 1.243-1.063a3.37 3.37 0 0 1 1.528-.34v2.342zm-2.615 8.59h-2.507v-4.923h2.507v4.923zm-1.113-14.761a8.916 8.916 0 1 0 0 17.832 8.916 8.916 0 0 0 8.916-8.915 8.916 8.916 0 0 0-8.916-8.917M50.868 37.872h-2.485c.01-.23.017-.467.017-.722v-4.672h2.468v5.394zm0 5.381H48.38v-1.167c-.366.49-.785.854-1.259 1.094-.472.239-1.012.356-1.62.356-1.353 0-2.39-.413-3.115-1.243-.725-.83-1.087-2.021-1.087-3.575v-.105h2.593c.075.768.222 1.336.444 1.693.333.533.906.802 1.723.802.835 0 1.435-.3 1.797-.901.224-.372.38-.904.464-1.594h2.548v4.64zm-9.57-10.775h2.538v4.84c0 .191.002.376.008.554H41.3v-5.394zm4.785-3.703a8.916 8.916 0 0 0-8.915 8.918 8.915 8.915 0 0 0 8.915 8.914c4.925 0 8.918-3.992 8.918-8.914a8.918 8.918 0 0 0-8.918-8.918M67.928 37.872c-.033-.843-.333-1.55-.915-2.117-.615-.602-1.389-.902-2.321-.902-.823 0-1.526.303-2.106.906-.558.579-.843 1.283-.867 2.113h-2.573V32.64h2.47v.9a5.526 5.526 0 0 1 1.577-.888 5.349 5.349 0 0 1 1.773-.288c.68 0 1.318.107 1.922.319.598.212 1.139.526 1.613.945a5.772 5.772 0 0 1 2.01 4.243h-2.583zm-3.486-9.097c-4.924 0-8.914 3.992-8.914 8.918a8.905 8.905 0 0 0 3.618 7.17v-6.25h2.619c.11.645.39 1.202.839 1.672.597.617 1.329.926 2.204.926.862 0 1.6-.315 2.211-.941a3.112 3.112 0 0 0 .863-1.657h2.61a5.638 5.638 0 0 1-.448 1.745 5.46 5.46 0 0 1-1.346 1.89c-.494.47-1.062.83-1.7 1.078a5.48 5.48 0 0 1-2.013.371c-.686 0-1.299-.092-1.846-.278a4.803 4.803 0 0 1-1.523-.867v3.595a8.915 8.915 0 0 0 11.742-8.455 8.916 8.916 0 0 0-8.916-8.917M76.874 38.613h2.784v5.221h-2.784zM76.874 37.872h2.784v-3.528h1.84v-2.482h-1.84v-3.49h-2.784v3.49h-1.83v2.482h1.83v3.528z" fill-rule="nonzero"/>
</svg>
