<?xml version="1.0" encoding="UTF-8" standalone="no"?>
<!DOCTYPE svg PUBLIC "-//W3C//DTD SVG 1.1//EN" "http://www.w3.org/Graphics/SVG/1.1/DTD/svg11.dtd">
<svg width="100%" height="100%" viewBox="0 0 85 55" version="1.1" 
    xmlns="http://www.w3.org/2000/svg" 
    xmlns:xlink="http://www.w3.org/1999/xlink" xml:space="preserve" 
    xmlns:serif="http://www.serif.com/" style="fill-rule:evenodd;clip-rule:evenodd;stroke-linejoin:round;stroke-miterlimit:1.41421;">
    <g transform="matrix(1,0,0,1,-7017,-1889)">
        <g id="Artboard8" transform="matrix(0.833413,0,0,0.891877,1168.94,766.359)">
            <rect x="7017" y="1258.74" width="101.99" height="61.668" style="fill:none;"/>
            <g id="logo" transform="matrix(0.15158,0,0,0.141644,5630.2,1254.27)">
                <g transform="matrix(8.33333,0,0,8.33333,4979.63,0)">
                    <path d="M512.939,21.171C512.939,20.199 512.631,19.389 512.011,18.74C511.396,18.093 510.626,17.77 509.701,17.77C508.793,17.77 508.015,18.099 507.371,18.762C506.726,19.423 506.404,20.212 506.404,21.129C506.404,22.087 506.728,22.885 507.377,23.523C508.023,24.16 508.841,24.479 509.826,24.479C510.695,24.479 511.429,24.159 512.034,23.518C512.636,22.878 512.939,22.095 512.939,21.171M513.053,16.343L513.053,11.752L515.659,11.752L515.659,26.806L513.053,26.806L513.053,25.874C512.53,26.289 511.976,26.597 511.398,26.8C510.818,27.004 510.191,27.105 509.515,27.105C508.798,27.105 508.123,26.991 507.49,26.763C506.855,26.536 506.287,26.206 505.785,25.771C505.093,25.179 504.566,24.478 504.197,23.668C503.828,22.858 503.644,21.997 503.644,21.088C503.644,20.247 503.814,19.441 504.156,18.669C504.496,17.898 504.978,17.229 505.597,16.663C506.115,16.173 506.707,15.801 507.377,15.546C508.044,15.292 508.757,15.164 509.515,15.164C510.246,15.164 510.894,15.259 511.459,15.448C512.025,15.638 512.554,15.936 513.053,16.343" style="fill:rgb(255,39,43);fill-rule:nonzero;"/>
                </g>
                <g transform="matrix(8.33333,0,0,8.33333,4979.63,0)">
                    <path d="M527.678,15.846L525.352,15.846L525.352,13.919L527.678,13.914L527.678,15.846ZM527.678,26.052L525.352,26.052L525.352,16.888L527.678,16.888L527.678,26.052ZM526.516,12.484C521.836,12.484 518.045,16.277 518.045,20.953C518.045,25.631 521.836,29.423 526.516,29.423C531.194,29.423 534.985,25.631 534.985,20.953C534.985,16.277 531.194,12.484 526.516,12.484" style="fill:rgb(255,39,43);fill-rule:nonzero;"/>
                </g>
                <g transform="matrix(8.33333,0,0,8.33333,4979.63,0)">
                    <path d="M546.52,25.572C545.874,26.195 545.061,26.507 544.082,26.507C543.096,26.507 542.3,26.179 541.696,25.521C541.09,24.863 540.76,23.973 540.704,22.851L542.881,22.841L542.881,22.981C542.881,23.433 542.997,23.801 543.227,24.083C543.456,24.364 543.754,24.507 544.12,24.507C544.467,24.507 544.75,24.402 544.968,24.19C545.189,23.98 545.3,23.709 545.3,23.38C545.3,23.077 545.218,22.827 545.059,22.632C544.896,22.436 544.61,22.239 544.194,22.041C543.957,21.934 543.61,21.788 543.151,21.602C542.692,21.417 542.399,21.271 542.268,21.166C541.889,20.857 541.61,20.509 541.43,20.129C541.25,19.746 541.161,19.312 541.161,18.822C541.161,17.96 541.463,17.23 542.067,16.635C542.672,16.04 543.406,15.741 544.268,15.741C545.18,15.741 545.901,16.005 546.432,16.532C546.961,17.059 547.252,17.798 547.3,18.747L545.161,18.747L545.161,18.691C545.161,18.363 545.077,18.104 544.905,17.918C544.735,17.733 544.499,17.639 544.194,17.639C543.925,17.639 543.706,17.731 543.528,17.913C543.352,18.097 543.264,18.325 543.264,18.597C543.264,19.045 543.721,19.46 544.641,19.845C544.883,19.943 545.067,20.022 545.198,20.076C546.079,20.474 546.682,20.901 547.002,21.357C547.327,21.813 547.487,22.427 547.487,23.204C547.487,24.159 547.165,24.948 546.52,25.572M544.096,12.484C539.418,12.484 535.627,16.277 535.627,20.953C535.627,25.632 539.418,29.424 544.096,29.424C548.774,29.424 552.564,25.632 552.564,20.953C552.564,16.277 548.774,12.484 544.096,12.484" style="fill:rgb(255,39,43);fill-rule:nonzero;"/>
                </g>
                <g transform="matrix(8.33333,0,0,8.33333,4979.63,0)">
                    <path d="M530.057,36.982C529.133,37.057 528.487,37.298 528.121,37.708C527.776,38.095 527.596,38.781 527.577,39.76L525.192,39.76L525.192,34.907L527.424,34.907L527.424,36.09C527.784,35.629 528.178,35.295 528.606,35.08C529.034,34.866 529.518,34.758 530.057,34.758L530.057,36.982ZM527.573,45.142L525.192,45.142L525.192,40.465L527.573,40.465L527.573,45.142ZM526.516,31.12C521.836,31.12 518.045,34.912 518.045,39.59C518.045,44.266 521.836,48.059 526.516,48.059C531.194,48.059 534.985,44.266 534.985,39.59C534.985,34.912 531.194,31.12 526.516,31.12" style="fill:black;fill-rule:nonzero;"/>
                </g>
                <g transform="matrix(8.33333,0,0,8.33333,4979.63,0)">
                    <path d="M548.641,39.761L546.28,39.761C546.289,39.543 546.297,39.318 546.297,39.076L546.297,34.638L548.641,34.638L548.641,39.761ZM548.641,44.873L546.278,44.873L546.278,43.764C545.93,44.23 545.532,44.575 545.082,44.803C544.633,45.03 544.12,45.142 543.543,45.142C542.258,45.142 541.272,44.749 540.584,43.961C539.895,43.173 539.551,42.041 539.551,40.565L539.551,40.465L542.014,40.465C542.086,41.195 542.225,41.734 542.436,42.073C542.752,42.58 543.297,42.835 544.073,42.835C544.866,42.835 545.436,42.55 545.78,41.979C545.993,41.626 546.141,41.121 546.221,40.465L548.641,40.465L548.641,44.873ZM539.551,34.638L541.961,34.638L541.961,39.235C541.961,39.417 541.963,39.592 541.969,39.761L539.551,39.761L539.551,34.638ZM544.096,31.12C539.418,31.12 535.627,34.912 535.627,39.591C535.627,44.267 539.418,48.059 544.096,48.059C548.774,48.059 552.567,44.267 552.567,39.591C552.567,34.912 548.774,31.12 544.096,31.12" style="fill:black;fill-rule:nonzero;"/>
                </g>
                <g transform="matrix(8.33333,0,0,8.33333,4979.63,0)">
                    <path d="M564.846,39.761C564.815,38.961 564.53,38.289 563.977,37.75C563.393,37.179 562.658,36.894 561.772,36.894C560.991,36.894 560.323,37.181 559.772,37.754C559.242,38.304 558.971,38.973 558.948,39.761L556.504,39.761L556.504,34.792L558.85,34.792L558.85,35.647C559.328,35.269 559.828,34.989 560.348,34.804C560.869,34.622 561.432,34.53 562.033,34.53C562.678,34.53 563.285,34.632 563.858,34.833C564.426,35.035 564.94,35.333 565.391,35.731C566.006,36.265 566.479,36.894 566.809,37.62C567.117,38.292 567.276,39.007 567.299,39.761L564.846,39.761ZM561.535,31.12C556.858,31.12 553.067,34.912 553.067,39.591C553.067,42.384 554.42,44.86 556.504,46.403L556.504,40.465L558.992,40.465C559.096,41.078 559.362,41.607 559.789,42.053C560.356,42.64 561.051,42.933 561.883,42.933C562.701,42.933 563.403,42.634 563.983,42.039C564.426,41.584 564.698,41.058 564.803,40.465L567.282,40.465C567.229,41.038 567.088,41.591 566.856,42.123C566.555,42.818 566.129,43.416 565.578,43.918C565.108,44.365 564.569,44.706 563.963,44.942C563.36,45.178 562.721,45.295 562.051,45.295C561.399,45.295 560.817,45.207 560.297,45.03C559.78,44.853 559.297,44.579 558.85,44.207L558.85,47.622C559.694,47.904 560.596,48.059 561.535,48.059C566.213,48.059 570.004,44.267 570.004,39.591C570.004,34.912 566.213,31.12 561.535,31.12" style="fill:black;fill-rule:nonzero;"/>
                </g>
                <g transform="matrix(8.33333,0,0,8.33333,4979.63,0)">
                    <rect x="573.344" y="40.465" width="2.645" height="4.96" style="fill:black;fill-rule:nonzero;"/>
                </g>
                <g transform="matrix(8.33333,0,0,8.33333,4979.63,0)">
                    <path d="M573.344,39.761L575.989,39.761L575.989,36.41L577.737,36.41L577.737,34.052L575.989,34.052L575.989,30.737L573.344,30.737L573.344,34.052L571.606,34.052L571.606,36.41L573.344,36.41L573.344,39.761Z" style="fill:black;fill-rule:nonzero;"/>
                </g>
            </g>
        </g>
    </g>
</svg>
