<?xml version="1.0" encoding="UTF-8" standalone="no"?>
<svg
   xmlns:dc="http://purl.org/dc/elements/1.1/"
   xmlns:cc="http://creativecommons.org/ns#"
   xmlns:rdf="http://www.w3.org/1999/02/22-rdf-syntax-ns#"
   xmlns:svg="http://www.w3.org/2000/svg"
   xmlns="http://www.w3.org/2000/svg"
   xmlns:sodipodi="http://sodipodi.sourceforge.net/DTD/sodipodi-0.dtd"
   xmlns:inkscape="http://www.inkscape.org/namespaces/inkscape"
   id="svg8"
   version="1.1"
   viewBox="0 0 73.51236 10.591853"
   height="40.0322"
   width="277.84198"
   sodipodi:docname="foxfox-text-densed-white.svg"
   inkscape:version="0.92.2 5c3e80d, 2017-08-06">
  <sodipodi:namedview
     pagecolor="#ffffff"
     bordercolor="#666666"
     borderopacity="1"
     objecttolerance="10"
     gridtolerance="10"
     guidetolerance="10"
     inkscape:pageopacity="0"
     inkscape:pageshadow="2"
     inkscape:window-width="654"
     inkscape:window-height="480"
     id="namedview40"
     showgrid="false"
     fit-margin-top="0"
     fit-margin-left="0"
     fit-margin-right="0"
     fit-margin-bottom="0"
     units="px"
     inkscape:zoom="0.2102413"
     inkscape:cx="387.17046"
     inkscape:cy="-504.43858"
     inkscape:window-x="0"
     inkscape:window-y="0"
     inkscape:window-maximized="0"
     inkscape:current-layer="svg8" />
  <defs
     id="defs2">
    <clipPath
       id="a">
      <path
         d="m -173.828,1455.5 h 800 v -800 h -800 z"
         id="path81"
         inkscape:connector-curvature="0" />
    </clipPath>
  </defs>
  <metadata
     id="metadata5">
    <rdf:RDF>
      <cc:Work
         rdf:about="">
        <dc:format>image/svg+xml</dc:format>
        <dc:type
           rdf:resource="http://purl.org/dc/dcmitype/StillImage" />
        <dc:title></dc:title>
      </cc:Work>
    </rdf:RDF>
  </metadata>
  <g
     id="layer1"
     transform="translate(-2.5611496,-4.4421066)">
    <g
       transform="matrix(0.26458333,0,0,0.26458333,2.5611496,4.4422442)"
       class="layer"
       id="g90">
      <g
         clip-path="url(#a)"
         transform="matrix(1,0,0,-1,0,800)"
         id="g88">
        <path
           style="fill:#ffffff"
           id="path115"
           d="m 51.468502,800.00052 a 3.9999999,3.9999999 0 0 1 -4,-4 v -32 a 3.9999999,3.9999999 0 0 1 4,-4 h 32.000002 a 3.9999999,3.9999999 0 0 1 4,4 v 32 a 3.9999999,3.9999999 0 0 1 -4,4 z m 4,-8 h 24.000002 v -24 H 55.468502 Z"
           inkscape:connector-curvature="0" />
        <path
           style="opacity:1;vector-effect:none;fill:#ffffff;fill-opacity:1;stroke-width:1;stroke-linecap:butt;stroke-linejoin:miter;stroke-miterlimit:4;stroke-dasharray:none;stroke-dashoffset:0;stroke-opacity:1"
           id="path113"
           d="m 133.766,798.828 a 4,4 0 0 1 -5.657,0 l -13.172,-13.172 -13.171,13.172 a 4,4 0 0 1 -5.657,-5.656 L 109.28,780 96.108,766.828 a 4,4 0 1 1 5.657,-5.656 l 13.17,13.172 13.173,-13.172 a 3.982,3.982 0 0 1 2.828,-1.172 4,4 0 0 1 2.829,6.828 L 120.594,780 l 13.172,13.172 a 4,4 0 0 1 0,5.656"
           inkscape:connector-curvature="0" />
        <path
           style="fill:#ffffff"
           id="path111"
           d="m 36,792 a 4,4 0 0 1 0,8 H 4 a 4,4 0 0 1 -4,-4 v -32 a 4,4 0 0 1 8,0 v 12 h 28 a 4,4 0 0 1 0,8 H 8 v 8 z"
           inkscape:connector-curvature="0" />
        <path
           style="fill:#ffffff"
           id="path115-8"
           d="m 194.37334,800.0005 a 4,4 0 0 1 -4,-4 v -32 a 4,4 0 0 1 4,-4 h 32.00001 a 4,4 0 0 1 4,4 v 32 a 4,4 0 0 1 -4,4 z m 4,-8 h 24.00001 v -24 h -24.00001 z"
           inkscape:connector-curvature="0" />
        <path
           style="fill:#ffffff"
           id="path113-0"
           d="m 276.67085,798.82798 a 4.0000001,4.0000001 0 0 1 -5.657,0 l -13.172,-13.172 -13.17101,13.172 a 4.0000001,4.0000001 0 0 1 -5.657,-5.656 l 13.171,-13.172 -13.172,-13.172 a 4.0000001,4.0000001 0 1 1 5.657,-5.656 l 13.17001,13.172 13.173,-13.172 a 3.9820001,3.9820001 0 0 1 2.828,-1.172 4.0000001,4.0000001 0 0 1 2.829,6.828 l -13.171,13.172 13.172,13.172 a 4.0000001,4.0000001 0 0 1 0,5.656"
           inkscape:connector-curvature="0" />
        <path
           style="fill:#ffffff"
           id="path111-2"
           d="m 178.90484,791.99998 a 4.0000001,4.0000001 0 0 1 0,8 h -32 a 4.0000001,4.0000001 0 0 1 -4,-4 v -32 a 4.0000001,4.0000001 0 0 1 8,0 v 12 h 28 a 4.0000001,4.0000001 0 0 1 0,8 h -28 v 8 z"
           inkscape:connector-curvature="0" />
      </g>
    </g>
  </g>
</svg>
